<svg width="20" height="19" viewBox="0 0 20 19" fill="none" xmlns="http://www.w3.org/2000/svg">
<path d="M8.00677 17.8556C8.4259 17.8556 8.76568 17.5159 8.76568 17.0967C8.76568 16.6776 8.4259 16.3378 8.00677 16.3378C7.58764 16.3378 7.24786 16.6776 7.24786 17.0967C7.24786 17.5159 7.58764 17.8556 8.00677 17.8556Z" stroke="#F8964C" stroke-width="2" stroke-linecap="round" stroke-linejoin="round"/>
<path d="M16.3534 17.8556C16.7725 17.8556 17.1123 17.5159 17.1123 17.0967C17.1123 16.6776 16.7725 16.3378 16.3534 16.3378C15.9343 16.3378 15.5945 16.6776 15.5945 17.0967C15.5945 17.5159 15.9343 17.8556 16.3534 17.8556Z" stroke="#F8964C" stroke-width="2" stroke-linecap="round" stroke-linejoin="round"/>
<path d="M1.93353 1.91839H4.96916L7.00303 12.0802C7.07243 12.4296 7.26251 12.7434 7.53999 12.9668C7.81748 13.1902 8.16469 13.3088 8.52084 13.302H15.8974C16.2536 13.3088 16.6008 13.1902 16.8783 12.9668C17.1558 12.7434 17.3458 12.4296 17.4152 12.0802L18.6295 5.71293H5.72807" stroke="#F8964C" stroke-width="2" stroke-linecap="round" stroke-linejoin="round"/>
</svg>
