<svg width="21" height="21" viewBox="0 0 21 21" fill="none" xmlns="http://www.w3.org/2000/svg">
<path d="M11.0697 8.92278L5.56066 14.4328L3.69066 13.6558L3.52366 13.8248L5.90366 15.4118L7.49166 17.7918L7.65966 17.6238L6.88366 15.7538L12.3927 10.2458L16.7207 16.4978L16.9307 16.2898L14.0437 8.59378L18.4437 4.19578C18.6098 4.01847 18.7004 3.78352 18.6965 3.5406C18.6925 3.29767 18.5942 3.0658 18.4224 2.89401C18.2506 2.72221 18.0188 2.62395 17.7758 2.61998C17.5329 2.61602 17.298 2.70667 17.1207 2.87278L12.7207 7.27178L5.02666 4.38578L4.81666 4.59478L11.0697 8.92278ZM16.4597 19.4058L12.1297 13.1528L9.08966 16.1928L9.86666 18.0628L7.20066 20.7278L4.55566 16.7608L0.587662 14.1148L3.25366 11.4488L5.12266 12.2248L8.16266 9.18478L1.90966 4.85678L4.55566 2.21178L12.2507 5.09678L15.7977 1.54978C16.0571 1.2841 16.3666 1.07255 16.7084 0.927392C17.0501 0.782229 17.4173 0.706339 17.7886 0.704121C18.1599 0.701903 18.528 0.7734 18.8714 0.914469C19.2149 1.05554 19.527 1.26337 19.7895 1.52593C20.0521 1.78849 20.2599 2.10054 20.401 2.44401C20.542 2.78748 20.6135 3.15553 20.6113 3.52683C20.6091 3.89814 20.5332 4.26531 20.388 4.60707C20.2429 4.94883 20.0313 5.25838 19.7657 5.51778L16.2187 9.06478L19.1047 16.7608L16.4587 19.4058H16.4597Z" fill="#70A6E8"/>
</svg>
