<svg width="13" height="11" viewBox="0 0 13 11" fill="none" xmlns="http://www.w3.org/2000/svg">
<path d="M8.20408 0.566406H0.703613V7.06681H8.20408V0.566406Z" stroke="black" stroke-width="1.00006" stroke-linecap="round" stroke-linejoin="round"/>
<path d="M8.2041 3.06689H10.2042L11.7043 4.56699V7.06714H8.2041V3.06689Z" stroke="black" stroke-width="1.00006" stroke-linecap="round" stroke-linejoin="round"/>
<path d="M2.95369 9.56656C3.64409 9.56656 4.20377 9.00688 4.20377 8.31648C4.20377 7.62609 3.64409 7.06641 2.95369 7.06641C2.26329 7.06641 1.70361 7.62609 1.70361 8.31648C1.70361 9.00688 2.26329 9.56656 2.95369 9.56656Z" stroke="black" stroke-width="1.00006" stroke-linecap="round" stroke-linejoin="round"/>
<path d="M9.45418 9.56656C10.1446 9.56656 10.7043 9.00688 10.7043 8.31648C10.7043 7.62609 10.1446 7.06641 9.45418 7.06641C8.76378 7.06641 8.2041 7.62609 8.2041 8.31648C8.2041 9.00688 8.76378 9.56656 9.45418 9.56656Z" stroke="black" stroke-width="1.00006" stroke-linecap="round" stroke-linejoin="round"/>
</svg>
