<svg width="13" height="12" viewBox="0 0 13 12" fill="none" xmlns="http://www.w3.org/2000/svg">
<path d="M4.71469 11.0537C4.99084 11.0537 5.21471 10.8298 5.21471 10.5537C5.21471 10.2775 4.99084 10.0536 4.71469 10.0536C4.43853 10.0536 4.21466 10.2775 4.21466 10.5537C4.21466 10.8298 4.43853 11.0537 4.71469 11.0537Z" stroke="#404040" stroke-width="0.996054" stroke-linecap="round" stroke-linejoin="round"/>
<path d="M10.2146 11.0537C10.4908 11.0537 10.7146 10.8298 10.7146 10.5537C10.7146 10.2775 10.4908 10.0536 10.2146 10.0536C9.93844 10.0536 9.71457 10.2775 9.71457 10.5537C9.71457 10.8298 9.93844 11.0537 10.2146 11.0537Z" stroke="#404040" stroke-width="0.996054" stroke-linecap="round" stroke-linejoin="round"/>
<path d="M0.713867 0.552765H2.71398L4.05405 7.24813C4.09977 7.47834 4.22501 7.68513 4.40784 7.83231C4.59067 7.97948 4.81944 8.05767 5.0541 8.05317H9.91437C10.149 8.05767 10.3778 7.97948 10.5606 7.83231C10.7435 7.68513 10.8687 7.47834 10.9144 7.24813L11.7145 3.0529H3.214" stroke="#404040" stroke-width="0.996054" stroke-linecap="round" stroke-linejoin="round"/>
</svg>
