<svg width="28" height="28" viewBox="0 0 28 28" fill="none" xmlns="http://www.w3.org/2000/svg">
<path d="M25.1219 20.1076L20.2028 15.1801V11.5267C20.2035 11.4156 20.1822 11.3056 20.1402 11.2028C20.0982 11.1 20.0363 11.0065 19.9581 10.9276L11.5206 2.49012C11.4422 2.41104 11.3489 2.34827 11.2461 2.30543C11.1432 2.26259 11.033 2.24054 10.9216 2.24054C10.8102 2.24054 10.6999 2.26259 10.5971 2.30543C10.4943 2.34827 10.401 2.41104 10.3225 2.49012L2.72877 10.0839C2.64968 10.1623 2.58691 10.2556 2.54408 10.3584C2.50124 10.4613 2.47919 10.5715 2.47919 10.6829C2.47919 10.7943 2.50124 10.9046 2.54408 11.0074C2.58691 11.1102 2.64968 11.2036 2.72877 11.282L11.1663 19.7195C11.2451 19.7977 11.3386 19.8596 11.4414 19.9016C11.5442 19.9435 11.6543 19.9648 11.7653 19.9642H15.4272L20.3463 24.8917C20.9796 25.525 21.8385 25.8807 22.7341 25.8807C23.6297 25.8807 24.4886 25.525 25.1219 24.8917C25.7552 24.2584 26.111 23.3995 26.111 22.5039C26.111 21.6083 25.7552 20.7493 25.1219 20.1161V20.1076ZM5.85908 9.34137L7.79127 11.282L8.98939 10.0839L7.04877 8.15168L8.39033 6.81012L12.01 10.4382L13.2081 9.24012L9.58002 5.62043L10.9216 4.27887L16.4819 9.83918L10.0778 16.2432L4.51752 10.6829L5.85908 9.34137ZM23.9238 23.6851C23.6076 23.9994 23.1799 24.1758 22.7341 24.1758C22.2883 24.1758 21.8606 23.9994 21.5444 23.6851L16.3722 18.5214C16.1924 18.3977 15.9881 18.3143 15.7731 18.2767H12.1113L11.2675 17.4329L17.6716 11.0289L18.5153 11.8726V15.5345C18.5163 15.7558 18.6041 15.968 18.76 16.1251L23.9238 21.3057C24.2381 21.6219 24.4145 22.0496 24.4145 22.4954C24.4145 22.9412 24.2381 23.3689 23.9238 23.6851Z" fill="url(#paint0_linear_1_274)"/>
<path d="M23.9238 23.6851C23.6076 23.9994 23.1799 24.1758 22.7341 24.1758C22.2883 24.1758 21.8606 23.9994 21.5444 23.6851L16.3722 18.5214C16.1924 18.3977 15.9881 18.3143 15.7731 18.2767H12.1113L11.2675 17.4329L17.6716 11.0289L18.5153 11.8726V15.5345C18.5163 15.7558 18.6041 15.968 18.76 16.1251L23.9238 21.3057C24.2381 21.6219 24.4145 22.0496 24.4145 22.4954C24.4145 22.9412 24.2381 23.3689 23.9238 23.6851Z" fill="url(#paint1_linear_1_274)"/>
<defs>
<linearGradient id="paint0_linear_1_274" x1="14.2951" y1="2.24054" x2="14.2951" y2="25.8807" gradientUnits="userSpaceOnUse">
<stop stop-color="#FFA764"/>
<stop offset="1" stop-color="#F17F29"/>
</linearGradient>
<linearGradient id="paint1_linear_1_274" x1="14.2951" y1="2.24054" x2="14.2951" y2="25.8807" gradientUnits="userSpaceOnUse">
<stop stop-color="#FFA764"/>
<stop offset="1" stop-color="#F17F29"/>
</linearGradient>
</defs>
</svg>
