<svg width="31" height="23" viewBox="0 0 31 23" fill="none" xmlns="http://www.w3.org/2000/svg">
<path d="M29.9613 11.0549C28.6275 5.0245 26.62 1.80584 23.6422 0.926649C23.0163 0.743043 22.367 0.651315 21.7147 0.654339C20.8525 0.654339 20.1016 0.864388 19.3073 1.08702C18.3501 1.35555 17.2628 1.66056 15.6773 1.66056C14.0919 1.66056 13.0039 1.35618 12.0449 1.08764C11.2499 0.864388 10.4997 0.654339 9.63999 0.654339C8.96545 0.652 8.29387 0.743435 7.64452 0.92602C4.68244 1.80144 2.67628 5.01884 1.3229 11.0512C-0.13235 17.5426 0.583957 21.6411 3.33158 22.5919C3.70821 22.7247 4.10449 22.7932 4.50383 22.7944C6.38611 22.7944 7.89544 21.2266 8.92682 19.9431C10.0922 18.4903 11.4562 17.7533 15.6773 17.7533C19.4475 17.7533 21.0078 18.2645 22.3555 19.9431C23.2027 20.9983 24.0032 21.7367 24.8019 22.2014C25.8641 22.819 26.9257 22.9561 27.9564 22.602C29.5802 22.048 30.511 20.5833 30.7236 18.2476C30.8852 16.4565 30.6361 14.1038 29.9613 11.0549ZM12.6587 10.7166H10.6462V12.729C10.6462 12.9959 10.5402 13.2519 10.3515 13.4406C10.1628 13.6293 9.90685 13.7353 9.63999 13.7353C9.37312 13.7353 9.11718 13.6293 8.92848 13.4406C8.73977 13.2519 8.63376 12.9959 8.63376 12.729V10.7166H6.62131C6.35444 10.7166 6.09851 10.6106 5.9098 10.4219C5.7211 10.2332 5.61509 9.97724 5.61509 9.71037C5.61509 9.4435 5.7211 9.18756 5.9098 8.99886C6.09851 8.81016 6.35444 8.70414 6.62131 8.70414H8.63376V6.69169C8.63376 6.42482 8.73977 6.16889 8.92848 5.98018C9.11718 5.79148 9.37312 5.68547 9.63999 5.68547C9.90685 5.68547 10.1628 5.79148 10.3515 5.98018C10.5402 6.16889 10.6462 6.42482 10.6462 6.69169V8.70414H12.6587C12.9255 8.70414 13.1815 8.81016 13.3702 8.99886C13.5589 9.18756 13.6649 9.4435 13.6649 9.71037C13.6649 9.97724 13.5589 10.2332 13.3702 10.4219C13.1815 10.6106 12.9255 10.7166 12.6587 10.7166ZM17.9413 10.9682C17.6926 10.9682 17.4494 10.8944 17.2426 10.7562C17.0357 10.618 16.8745 10.4215 16.7793 10.1917C16.6841 9.96187 16.6592 9.70897 16.7077 9.46499C16.7563 9.221 16.8761 8.99689 17.052 8.82098C17.2279 8.64508 17.452 8.52529 17.696 8.47676C17.94 8.42822 18.1929 8.45313 18.4227 8.54833C18.6525 8.64353 18.8489 8.80474 18.9872 9.01158C19.1254 9.21842 19.1991 9.4616 19.1991 9.71037C19.1991 10.044 19.0666 10.3639 18.8307 10.5998C18.5949 10.8356 18.2749 10.9682 17.9413 10.9682V10.9682ZM20.7085 13.7353C20.4596 13.7353 20.2163 13.6614 20.0094 13.5231C19.8024 13.3847 19.6412 13.1881 19.5461 12.9581C19.451 12.7281 19.4263 12.475 19.4751 12.2309C19.5239 11.9869 19.644 11.7628 19.8202 11.587C19.9964 11.4112 20.2208 11.2917 20.465 11.2435C20.7092 11.1953 20.9622 11.2207 21.192 11.3164C21.4218 11.412 21.618 11.5737 21.7558 11.781C21.8936 11.9882 21.9669 12.2317 21.9663 12.4806C21.9654 12.8137 21.8325 13.1328 21.5967 13.368C21.361 13.6032 21.0415 13.7353 20.7085 13.7353V13.7353ZM20.7085 8.20103C20.4597 8.20103 20.2165 8.12726 20.0097 7.98906C19.8028 7.85085 19.6416 7.65441 19.5464 7.42458C19.4512 7.19475 19.4263 6.94185 19.4749 6.69787C19.5234 6.45388 19.6432 6.22977 19.8191 6.05386C19.995 5.87796 20.2191 5.75817 20.4631 5.70963C20.7071 5.6611 20.96 5.68601 21.1898 5.78121C21.4196 5.87641 21.6161 6.03762 21.7543 6.24446C21.8925 6.4513 21.9663 6.69448 21.9663 6.94325C21.9663 7.27683 21.8337 7.59676 21.5979 7.83263C21.362 8.06851 21.0421 8.20103 20.7085 8.20103ZM23.4756 10.9682C23.2268 10.9682 22.9836 10.8944 22.7768 10.7562C22.57 10.618 22.4087 10.4215 22.3136 10.1917C22.2184 9.96187 22.1934 9.70897 22.242 9.46499C22.2905 9.221 22.4103 8.99689 22.5862 8.82098C22.7621 8.64508 22.9862 8.52529 23.2302 8.47676C23.4742 8.42822 23.7271 8.45313 23.9569 8.54833C24.1868 8.64353 24.3832 8.80474 24.5214 9.01158C24.6596 9.21842 24.7334 9.4616 24.7334 9.71037C24.7334 10.044 24.6009 10.3639 24.365 10.5998C24.1291 10.8356 23.8092 10.9682 23.4756 10.9682V10.9682Z" fill="url(#paint0_linear_1_280)"/>
<defs>
<linearGradient id="paint0_linear_1_280" x1="15.6786" y1="0.654266" x2="15.6786" y2="22.7944" gradientUnits="userSpaceOnUse">
<stop stop-color="#22B04A"/>
<stop offset="1" stop-color="#1E9540"/>
</linearGradient>
</defs>
</svg>
