<svg width="19" height="22" viewBox="0 0 19 22" fill="none" xmlns="http://www.w3.org/2000/svg">
<path d="M15.405 6.46521C15.405 4.87391 14.7728 3.34779 13.6476 2.22257C12.5224 1.09735 10.9963 0.46521 9.40497 0.46521C7.81367 0.46521 6.28755 1.09735 5.16233 2.22257C4.03711 3.34779 3.40497 4.87391 3.40497 6.46521C3.40497 13.4652 0.404968 15.4652 0.404968 15.4652H18.405C18.405 15.4652 15.405 13.4652 15.405 6.46521Z" fill="#E3E3E3"/>
<path d="M11.135 19.4652C10.9591 19.7683 10.7068 20.0199 10.4032 20.1947C10.0996 20.3696 9.75534 20.4617 9.40496 20.4617C9.05458 20.4617 8.71035 20.3696 8.40673 20.1947C8.10311 20.0199 7.85077 19.7683 7.67496 19.4652" stroke="#E3E3E3" stroke-width="2" stroke-linecap="round" stroke-linejoin="round"/>
</svg>
