<svg width="36" height="36" viewBox="0 0 36 36" fill="none" xmlns="http://www.w3.org/2000/svg">
<circle cx="17.7624" cy="18.4651" r="17.5292" fill="#FFC145"/>
<mask id="mask0_1_300" style="mask-type:alpha" maskUnits="userSpaceOnUse" x="0" y="0" width="36" height="36">
<circle cx="17.7624" cy="18.4651" r="17.5292" fill="#FFC145"/>
</mask>
<g mask="url(#mask0_1_300)">
<path d="M17.7609 21.923C20.7523 21.923 23.1773 19.498 23.1773 16.5066C23.1773 13.5152 20.7523 11.0902 17.7609 11.0902C14.7695 11.0902 12.3445 13.5152 12.3445 16.5066C12.3445 19.498 14.7695 21.923 17.7609 21.923Z" fill="white"/>
<path d="M28.5951 38.0827V34.5019C28.5951 32.6025 28.0244 30.7809 27.0086 29.4378C25.9929 28.0947 24.6152 27.3402 23.1787 27.3402H12.3459C10.9093 27.3402 9.53165 28.0947 8.51587 29.4378C7.5001 30.7809 6.92944 32.6025 6.92944 34.5019V38.0827" fill="#197BBD"/>
</g>
</svg>
