<svg width="212" height="142" viewBox="0 0 212 142" fill="none" xmlns="http://www.w3.org/2000/svg">
<path d="M104.788 115.244C104.788 144.101 81.3957 167.494 52.5393 167.494C23.6829 167.494 0.290161 144.101 0.290161 115.244C0.290161 100.03 6.7928 86.335 17.1704 76.7862C26.4759 68.2238 38.897 62.9954 52.5393 62.9954C81.3957 62.9954 104.788 86.3881 104.788 115.244Z" fill="white" fill-opacity="0.12"/>
<path d="M104.788 115.244C104.788 144.101 81.3957 167.494 52.5393 167.494H203.334C174.477 167.494 151.085 144.101 151.085 115.244C151.085 111.558 151.466 107.962 152.192 104.491C149.732 104.847 147.216 105.031 144.657 105.031C119.296 105.031 98.1548 86.9619 93.4053 62.9954H59.3229H52.5393C81.3957 62.9954 104.788 86.3881 104.788 115.244Z" fill="white" fill-opacity="0.12"/>
<path d="M93.4053 62.9954C92.7507 59.6922 92.4075 56.2769 92.4075 52.7815C92.4075 48.1909 92.9995 43.7385 94.1114 39.4966C89.7452 47.3295 76.675 62.9954 59.3229 62.9954H93.4053Z" fill="white" fill-opacity="0.12"/>
<path fill-rule="evenodd" clip-rule="evenodd" d="M203.334 167.494C232.19 167.494 255.583 144.101 255.583 115.244C255.583 86.3881 232.19 62.9954 203.334 62.9954C200.775 62.9954 198.259 63.1794 195.798 63.5348C191.344 84.8231 173.934 101.351 152.192 104.491C151.466 107.962 151.085 111.558 151.085 115.244C151.085 144.101 174.477 167.494 203.334 167.494Z" fill="white" fill-opacity="0.12"/>
<path d="M195.798 63.5348C191.344 84.8231 173.934 101.351 152.192 104.491C156.646 83.2029 174.057 66.6755 195.798 63.5348Z" fill="white" fill-opacity="0.12"/>
<path d="M196.906 52.7815C196.906 23.9252 173.513 0.53244 144.657 0.53244C120.391 0.53244 99.9887 17.0743 94.1114 39.4966C92.9995 43.7385 92.4075 48.1909 92.4075 52.7815C92.4075 56.2769 92.7507 59.6922 93.4053 62.9954C98.1548 86.9619 119.296 105.031 144.657 105.031C147.216 105.031 149.732 104.847 152.192 104.491C156.646 83.2029 174.057 66.6755 195.798 63.5348C196.524 60.0645 196.906 56.4676 196.906 52.7815Z" fill="white" fill-opacity="0.12"/>
</svg>
