<svg width="47" height="34" viewBox="0 0 47 34" fill="none" xmlns="http://www.w3.org/2000/svg">
<path d="M18.3635 24.3729C18.3635 29.2796 14.3858 33.2573 9.47907 33.2573C4.57235 33.2573 0.594666 29.2796 0.594666 24.3729C0.594666 21.7859 1.70037 19.4571 3.46497 17.8334C5.04727 16.3775 7.15934 15.4885 9.47907 15.4885C14.3858 15.4885 18.3635 19.4661 18.3635 24.3729Z" fill="#197BBD"/>
<path d="M44.0045 24.3729C44.0045 29.2796 40.0268 33.2573 35.1201 33.2573C30.2134 33.2573 26.2357 29.2796 26.2357 24.3729C26.2357 23.7461 26.3006 23.1345 26.424 22.5444C27.267 18.5149 30.8401 15.4885 35.1201 15.4885C40.0268 15.4885 44.0045 19.4661 44.0045 24.3729Z" fill="#197BBD"/>
<path d="M34.027 13.7517C34.027 18.2233 30.7236 21.9233 26.424 22.5444C26.0056 22.6048 25.5778 22.6361 25.1426 22.6361C20.8303 22.6361 17.2355 19.5637 16.4279 15.4885C16.3166 14.9268 16.2582 14.3461 16.2582 13.7517C16.2582 12.9711 16.3589 12.214 16.548 11.4927C17.5473 7.68007 21.0165 4.86731 25.1426 4.86731C30.0494 4.86731 34.027 8.84499 34.027 13.7517Z" fill="#197BBD"/>
<path d="M18.3635 24.3729C18.3635 29.2796 14.3858 33.2573 9.47907 33.2573H35.1201C30.2134 33.2573 26.2357 29.2796 26.2357 24.3729C26.2357 23.7461 26.3006 23.1345 26.424 22.5444C26.0056 22.6048 25.5778 22.6361 25.1426 22.6361C20.8303 22.6361 17.2355 19.5637 16.4279 15.4885H10.6326H9.47907C14.3858 15.4885 18.3635 19.4661 18.3635 24.3729Z" fill="#197BBD"/>
<path d="M16.4279 15.4885C16.3166 14.9268 16.2582 14.3461 16.2582 13.7517C16.2582 12.9711 16.3589 12.214 16.548 11.4927C15.8055 12.8247 13.5831 15.4885 10.6326 15.4885H16.4279Z" fill="#197BBD"/>
<circle cx="35.2619" cy="11.0472" r="8.01481" transform="rotate(-30 35.2619 11.0472)" fill="#FFC145"/>
<path d="M38.4974 11.237C38.7834 11.7324 38.8576 12.2472 38.7199 12.7814C38.5822 13.3156 38.2862 13.791 37.8319 14.2077L38.1774 14.8061C38.274 14.9734 38.2959 15.1452 38.2433 15.3214C38.2008 15.5004 38.0959 15.6382 37.9286 15.7347C37.7677 15.8276 37.5992 15.8477 37.4229 15.795C37.2504 15.7488 37.1158 15.6421 37.0192 15.4748L36.7072 14.9343C36.3412 15.1027 35.98 15.2126 35.6236 15.264C35.2736 15.3116 34.8966 15.2976 34.4927 15.222C34.2298 15.1679 34.0445 15.0475 33.9368 14.8609C33.8513 14.7129 33.8317 14.5527 33.878 14.3802C33.9205 14.2012 34.0189 14.0671 34.1734 13.978C34.2956 13.9074 34.4273 13.8829 34.5684 13.9043C34.8607 13.95 35.1248 13.9691 35.3607 13.9616C35.5928 13.9477 35.8244 13.8955 36.0553 13.8051L34.9687 11.9231C33.538 12.4317 32.518 12.1584 31.9088 11.1032C31.6005 10.5692 31.528 10.0277 31.6915 9.47863C31.8512 8.92316 32.1951 8.44151 32.7231 8.03369L32.5393 7.7152C32.4427 7.54792 32.4175 7.37801 32.4637 7.20547C32.5127 7.02279 32.6208 6.88316 32.7881 6.78658C32.9489 6.69371 33.1175 6.67361 33.2937 6.72627C33.4663 6.7725 33.6008 6.87926 33.6974 7.04655L33.9036 7.40364C34.5062 7.1844 35.0717 7.12383 35.6002 7.22192C35.8722 7.26218 36.064 7.37882 36.1754 7.57184C36.2609 7.71983 36.2823 7.8833 36.2398 8.06227C36.1936 8.2348 36.0965 8.36378 35.9485 8.44922C35.852 8.50494 35.7484 8.52614 35.6378 8.51281C35.3519 8.4634 34.9985 8.48294 34.5778 8.57144L35.6086 10.3569C36.3182 10.1446 36.8981 10.1014 37.3484 10.2275C37.7949 10.3472 38.1779 10.6837 38.4974 11.237ZM33.0198 10.3975C33.1424 10.6098 33.3102 10.7445 33.5234 10.8016C33.7328 10.8523 33.9917 10.8401 34.3001 10.765L33.3751 9.16288C33.141 9.36666 32.9954 9.57511 32.9383 9.78824C32.8812 10.0014 32.9084 10.2044 33.0198 10.3975ZM37.1633 13.0496C37.3053 12.8647 37.3989 12.6776 37.4441 12.4885C37.4857 12.293 37.4637 12.1212 37.3783 11.9732C37.2742 11.7931 37.1336 11.6684 36.9564 11.5991C36.7754 11.5234 36.5528 11.5018 36.2884 11.5344L37.1633 13.0496Z" fill="#404040"/>
</svg>
